<?xml version="1.0" encoding="UTF-8" standalone="no"?>
<!DOCTYPE svg PUBLIC "-//W3C//DTD SVG 1.1//EN"
 "http://www.w3.org/Graphics/SVG/1.1/DTD/svg11.dtd">
<!-- Generated by graphviz version 2.38.0 (20140413.2041)
 -->
<!-- Title: dagCZSE Pages: 1 -->
<svg width="444pt" height="332pt"
 viewBox="0.00 0.00 444.49 332.00" xmlns="http://www.w3.org/2000/svg" xmlns:xlink="http://www.w3.org/1999/xlink">
<g id="graph0" class="graph" transform="scale(1 1) rotate(0) translate(4 328)">
<title>dagCZSE</title>
<polygon fill="white" stroke="none" points="-4,4 -4,-328 440.493,-328 440.493,4 -4,4"/>
<!-- SNZ -->
<g id="node1" class="node"><title>SNZ</title>
<ellipse fill="#ff7f0e" stroke="#ff7f0e" cx="28.5975" cy="-18" rx="27.8951" ry="18"/>
<text text-anchor="middle" x="28.5975" y="-14.3" font-family="Times New Roman,serif" font-size="14.00">SNZ</text>
</g>
<!-- TQP -->
<g id="node2" class="node"><title>TQP</title>
<ellipse fill="#ff7f0e" stroke="#ff7f0e" cx="28.5975" cy="-90" rx="28.6953" ry="18"/>
<text text-anchor="middle" x="28.5975" y="-86.3" font-family="Times New Roman,serif" font-size="14.00">TQP</text>
</g>
<!-- TQP&#45;&gt;SNZ -->
<g id="edge1" class="edge"><title>TQP&#45;&gt;SNZ</title>
<path fill="none" stroke="black" d="M28.5975,-71.6966C28.5975,-63.9827 28.5975,-54.7125 28.5975,-46.1124"/>
<polygon fill="black" stroke="black" points="32.0976,-46.1043 28.5975,-36.1043 25.0976,-46.1044 32.0976,-46.1043"/>
</g>
<!-- SQP Pulsed -->
<g id="node3" class="node"><title>SQP Pulsed</title>
<ellipse fill="#ff7f0e" stroke="#ff7f0e" cx="130.597" cy="-90" rx="55.4913" ry="18"/>
<text text-anchor="middle" x="130.597" y="-86.3" font-family="Times New Roman,serif" font-size="14.00">SQP Pulsed</text>
</g>
<!-- SQP Static -->
<g id="node4" class="node"><title>SQP Static</title>
<ellipse fill="#ff7f0e" stroke="#ff7f0e" cx="255.597" cy="-90" rx="51.1914" ry="18"/>
<text text-anchor="middle" x="255.597" y="-86.3" font-family="Times New Roman,serif" font-size="14.00">SQP Static</text>
</g>
<!-- SQP Parked -->
<g id="node5" class="node"><title>SQP Parked</title>
<ellipse fill="#ff7f0e" stroke="#ff7f0e" cx="380.597" cy="-90" rx="55.7903" ry="18"/>
<text text-anchor="middle" x="380.597" y="-86.3" font-family="Times New Roman,serif" font-size="14.00">SQP Parked</text>
</g>
<!-- IRB -->
<g id="node6" class="node"><title>IRB</title>
<ellipse fill="#ff7f0e" stroke="#ff7f0e" cx="192.597" cy="-162" rx="27" ry="18"/>
<text text-anchor="middle" x="192.597" y="-158.3" font-family="Times New Roman,serif" font-size="14.00">IRB</text>
</g>
<!-- IRB&#45;&gt;TQP -->
<g id="edge2" class="edge"><title>IRB&#45;&gt;TQP</title>
<path fill="none" stroke="black" d="M170.228,-151.769C144.987,-141.311 102.736,-123.682 66.5975,-108 64.5504,-107.112 62.4445,-106.19 60.3235,-105.257"/>
<polygon fill="black" stroke="black" points="61.6257,-102.006 51.0653,-101.152 58.7882,-108.405 61.6257,-102.006"/>
</g>
<!-- IRB&#45;&gt;SQP Pulsed -->
<g id="edge3" class="edge"><title>IRB&#45;&gt;SQP Pulsed</title>
<path fill="none" stroke="black" d="M179.449,-146.155C171.518,-137.2 161.222,-125.576 152.128,-115.309"/>
<polygon fill="black" stroke="black" points="154.718,-112.954 145.468,-107.789 149.478,-117.596 154.718,-112.954"/>
</g>
<!-- IRB&#45;&gt;SQP Static -->
<g id="edge4" class="edge"><title>IRB&#45;&gt;SQP Static</title>
<path fill="none" stroke="black" d="M205.958,-146.155C214.132,-137.072 224.779,-125.243 234.115,-114.87"/>
<polygon fill="black" stroke="black" points="236.848,-117.065 240.936,-107.29 231.645,-112.382 236.848,-117.065"/>
</g>
<!-- IRB&#45;&gt;SQP Parked -->
<g id="edge5" class="edge"><title>IRB&#45;&gt;SQP Parked</title>
<path fill="none" stroke="black" d="M215.65,-152.417C245.442,-141.324 297.966,-121.767 335.749,-107.699"/>
<polygon fill="black" stroke="black" points="337.348,-110.838 345.498,-104.069 334.905,-104.278 337.348,-110.838"/>
</g>
<!-- Prep Inspire -->
<g id="node7" class="node"><title>Prep Inspire</title>
<ellipse fill="#ff7f0e" stroke="#ff7f0e" cx="192.597" cy="-234" rx="55.4913" ry="18"/>
<text text-anchor="middle" x="192.597" y="-230.3" font-family="Times New Roman,serif" font-size="14.00">Prep Inspire</text>
</g>
<!-- Prep Inspire&#45;&gt;IRB -->
<g id="edge6" class="edge"><title>Prep Inspire&#45;&gt;IRB</title>
<path fill="none" stroke="black" d="M192.597,-215.697C192.597,-207.983 192.597,-198.712 192.597,-190.112"/>
<polygon fill="black" stroke="black" points="196.098,-190.104 192.597,-180.104 189.098,-190.104 196.098,-190.104"/>
</g>
<!-- Upload Calibration Results -->
<g id="node8" class="node"><title>Upload Calibration Results</title>
<ellipse fill="#ff7f0e" stroke="#ff7f0e" cx="192.597" cy="-306" rx="108.581" ry="18"/>
<text text-anchor="middle" x="192.597" y="-302.3" font-family="Times New Roman,serif" font-size="14.00">Upload Calibration Results</text>
</g>
<!-- Upload Calibration Results&#45;&gt;Prep Inspire -->
<g id="edge7" class="edge"><title>Upload Calibration Results&#45;&gt;Prep Inspire</title>
<path fill="none" stroke="black" d="M192.597,-287.697C192.597,-279.983 192.597,-270.712 192.597,-262.112"/>
<polygon fill="black" stroke="black" points="196.098,-262.104 192.597,-252.104 189.098,-262.104 196.098,-262.104"/>
</g>
</g>
</svg>
